<svg xmlns="http://www.w3.org/2000/svg" viewBox="0 0 5167 5021.48"><defs><style>.cls-1{fill:#0a0909;}.cls-2{font-size:102.07px;fill:#088208;font-family:MyriadPro-Regular, Myriad Pro;}.cls-3{fill:#f24611;}.cls-4{fill:#f4810f;}.cls-5{fill:#020202;}.cls-6{fill:#050101;}.cls-7{fill:none;stroke:#d32020;stroke-miterlimit:10;}</style></defs><title>fof</title><g id="Capa_1" data-name="Capa 1"><path class="cls-1" d="M4566,4691.71H.06v-3076q.06-260.45,0-520.88c0-53.3-.12-59.21,0-61.65C26,508.33,709.28,140.84,1041.92-13.21l1291.59,12Q3449.75,2345.24,4566,4691.71Z" transform="translate(601 13.21)"/><text class="cls-2" transform="translate(809 3350.97)">1 0 1 0 1 0 1 0 1 0 1 0 1 0 1 0 1 0 1 0 1 0 1 0 </text><text class="cls-2" transform="translate(800 3455.97)">1 0 1 0 1 0 1 0 1 0 1 0 1 0 1 0 1 0 1 0 1 0 1 0 </text><text class="cls-2" transform="translate(805 3662.97)">1 0 1 0 1 0 1 0 1 0 1 0 1 0 1 0 1 0 1 0 1 0 1 0 </text><text class="cls-2" transform="translate(659 3764.97)">1 0 1 0 1 0 1 0 1 0 1 0 1 0 1 0 1 0 1 0 1 0 1 0 </text><text class="cls-2" transform="translate(659 3857.97)">1 0 1 0 1 0 1 0 1 0 1 0 1 0 1 0 1 0 1 0 1 0 1 0 </text><text class="cls-2" transform="translate(659 3965.97)">1 0 1 0 1 0 1 0 1 0 1 0 1 0 1 0 1 0 1 0 1 0 1 0 </text><text class="cls-2" transform="translate(659 4064.97)">1 0 1 0 1 0 1 0 1 0 1 0 1 0 1 0 1 0 1 0 1 0 1 0 </text><text class="cls-2" transform="translate(656 4165.97)">1 0 1 0 1 0 1 0 1 0 1 0 1 0 1 0 1 0 1 0 1 0 1 0 </text><text class="cls-2" transform="translate(659 4261.97)">1 0 1 0 1 0 1 0 1 0 1 0 1 0 1 0 1 0 1 0 1 0 1 0 </text><text class="cls-2" transform="translate(659 4344.97)">1 0 1 0 1 0 1 0 1 0 1 0 1 0 1 0 1 0 1 0 1 0 1 0 </text><text class="cls-2" transform="translate(659 4434.97)">1 0 1 0 1 0 1 0 1 0 1 0 1 0 1 0 1 0 1 0 1 0 1 0 1 </text><text class="cls-2" transform="translate(659 4516.97)">1 0 1 0 1 0 1 0 1 0 1 0 1 0 1 0 1 0 1 0 1 0 1 0 1 </text><text class="cls-2" transform="translate(659 4606.97)">1 0 1 0 1 0 1 0 1 0 1 0 1 0 1 0 1 0 1 0 1 0 1 0 1</text><text class="cls-2" transform="translate(659 4692.97)">1 0 1 0 1 0 1 0 1 0 1 0 1 0 1 0 1 0 1 0 1 0 1 0 1 0</text><text class="cls-2" transform="translate(656 4778.97)">1 0 1 0 1 0 1 0 1 0 1 0 1 0 1 0 1 0 1 0 1 0 1 0 1 0 1</text><text class="cls-2" transform="translate(659 4875.97)">1 0 1 0 1 0 1 0 1 0 1 0 1 0 1 0 1 0 1 0 1 0 1 0 1 0 1 </text><text class="cls-2" transform="translate(656 4995.97)">1 0 1 0 1 0 1 0 1 0 1 0 1 0 1 0 1 0 1 0 1 0 1 0 1 0 1 </text><text class="cls-2" transform="translate(806 3557.97)">1 0 1 0 1 0 1 0 1 0 1 0 1 0 1 0 1 0 1 0 1 0 1 0 </text><text class="cls-2" transform="translate(658 972.97)">1 0 1 0 1</text><text class="cls-2" transform="translate(657 755.97)">1 0 1 </text><text class="cls-2" transform="translate(657 651.97)">1 0 1 </text><text class="cls-2" transform="translate(658 553.97)">1 0 </text><text class="cls-2" transform="translate(658 457.97)">1 0</text><text class="cls-2" transform="translate(0 769.97)">1 </text><text class="cls-2" transform="translate(657 863.97)">1 0 1 0 </text><text class="cls-2" transform="translate(658 1089.97)">1 0 1 0 1 </text><text class="cls-2" transform="translate(658 1189.97)">1 0 1 0 1 0 </text><text class="cls-2" transform="translate(658 1299.97)">1 0 1 0 1 0 </text><text class="cls-2" transform="translate(658 1399.97)">1 0 1 0 1 0 1 </text><text class="cls-2" transform="translate(658 1502.97)">1 0 1 0 1 0 1 0 </text><text class="cls-2" transform="translate(658 1602.97)">1 0 1 0 1 0 1 0</text><text class="cls-2" transform="translate(658 1698.97)">1 0 1 0 1 0 1 0 1 </text><text class="cls-2" transform="translate(658 1794.97)">1 0 1 0 1 0 1 0 1</text><text class="cls-2" transform="translate(658 1897.97)">1 0 1 0 1 0 1 0 1 0</text><text class="cls-2" transform="translate(657 2007.97)">1 0 1 0 1 0 1 0 1 0 1</text><text class="cls-2" transform="translate(659 2103.97)">1 0 1 0 1 0 1 0 1 0 1</text><text class="cls-2" transform="translate(659 2199.97)">1 0 1 0 1 0 1 0 1 0 1 0</text><text class="cls-2" transform="translate(659 2302.97)">1 0 1 0 1 0 1 0 1 0 1 0 1</text><text class="cls-2" transform="translate(658 2412.97)">1 0 1 0 1 0 1 0 1 0 1 0 1</text><text class="cls-2" transform="translate(658 2519.97)">1 0 1 0 1 0 1 0 1 0 1 0 1 0z </text><text class="cls-2" transform="translate(658 2615.97)">1 0 1 0 1 0 1 0 1</text><text class="cls-2" transform="translate(658 2718.97)">1 0 1 0 1 0 1 0 1</text><text class="cls-2" transform="translate(657 2828.97)">1 0 1 0 1 0 1 0 1</text><text class="cls-2" transform="translate(657 2921.97)">1 0 1 0 1 0 1 0 1 0</text><text class="cls-2" transform="translate(657 3024.97)">1 0 1 0 1 0 1 0 1 0 1</text><text class="cls-2" transform="translate(656 3134.97)">1 0 1 0 1 0 1 0 1 0 1 0V</text><text class="cls-2" transform="translate(659 3242.97)">1 0 1 0 1 0 1 0 1 0 1 0 1 0 1 0 1 0 1 0 1 0 1 0 </text><text class="cls-2" transform="translate(656 3350.97)">1 0 1 0 1 0 1 0 1</text><text class="cls-2" transform="translate(656 3455.97)">1 0 1 0 1 0 1 0 1</text><text class="cls-2" transform="translate(659 3557.97)">1 0 1 0 1 0 1 0 1</text><text class="cls-2" transform="translate(659 3662.97)">1 0 1 0 1 0 1 0 1</text><text class="cls-2" transform="translate(1101 2615.97)">1 0 1 0 1 0 1 0 1</text><text class="cls-2" transform="translate(1101 2718.97)">1 0 1 0 1 0 1 0 1</text><text class="cls-2" transform="translate(1100 2828.97)">1 0 1 0 1 0 1 0 1</text><path class="cls-3" d="M4499,4691.71H1623.81Q806.91,2848.25-10,1004.81V-.29H2272.53Z" transform="translate(601 13.21)"/><path class="cls-4" d="M4199,4691.71H2270.58L48-.29H1837.51Z" transform="translate(601 13.21)"/><path class="cls-5" d="M2472.65,2349.89A788.13,788.13,0,0,0,2354.14,2285a208.07,208.07,0,0,0,114.77-80.46c24.49,12.79,60.38,31.77,103.54,55.51,50.41,27.73,75.62,41.6,88.57,49.9,30.16,19.33,112.84,72.35,155.94,174.65,7.79,18.5,35,87.76,23.7,179-2.32,18.74-14.2,102.44-78,182.76-86.45,108.87-207,134.32-241.39,140.34q-22.44-14.67-44.9-29.32a259.32,259.32,0,0,0,73.6-21.83s41-19.09,76.09-53.64c58.69-57.74,100.19-147.21,92.94-235.15C2707.42,2506,2575.41,2418.23,2472.65,2349.89Z" transform="translate(601 13.21)"/><path class="cls-5" d="M1865.14,2520.17l18.08,6.24a299.33,299.33,0,0,0,1.87,58.63c3.31,25.15,11,58.55,33.69,104.16,17.91,36,66,131.11,170.9,203.34,49.38,34,90,48.23,100.42,51.77a378.18,378.18,0,0,0,91.07,18.71l26.19,43.67c-23.13-7.55-59.31-18.52-104.78-28.7-35.65-8-37.82-6.7-91.07-17.46-73.45-14.85-83.24-20.63-116-21.21-43.15-.75-67-1.17-87.33,15.6-34,28-29.6,80.62-28.69,89.81l-13.1.63Q1865.77,2782.77,1865.14,2520.17Z" transform="translate(601 13.21)"/><path class="cls-5" d="M2405,1493.82c27.89,4.18,92.62,16,172.77,40.54,68.75,21,108.53,39.06,143.46,18.71,19.2-11.18,29.65-29.72,35.55-44.28v-60.51l18.72-25.57q-.95,268.83-1.87,537.66h-18.09c-.61-57.34-10.39-147.87-61.13-241.39-22.4-41.29-55.51-102.31-126.62-147.2-61.57-38.86-121.41-46.55-157.18-51.14-75.89-9.75-134.75,2.4-154.06,6.86-53.85,12.44-125.1,28.89-177.77,89.82-86.4,100-52,237.88-47.4,255.1,18.76,70.79,60.86,115.18,86.39,141.9,61.37,64.24,129.63,92.52,166.54,104.79a143.55,143.55,0,0,1-120.39,71.73l-82.33-43a329.47,329.47,0,0,1-70.17-48.34c-68.21-61.48-92.08-135.49-99.8-164-35.65-132,24.38-242.78,33.06-258.23,82.69-147.12,245.64-176.22,285.67-183.37C2308.49,1479.86,2381.19,1490.24,2405,1493.82Z" transform="translate(601 13.21)"/><path class="cls-1" d="M157,2582.71" transform="translate(601 13.21)"/><text x="601" y="13.21"></text></g><g id="Capa_2" data-name="Capa 2"><path class="cls-6" d="M2557.56,3101.64a458.68,458.68,0,0,0,155.24,49c-101.16,8.44-182.22,3.19-238.83-3.58-48.48-5.81-63.84-10.91-72.84-14.33-47.44-18-93.45-55.56-158.22-173.75-52.72-96.2-51.24-124.24-130.76-292.56-13.07-27.66-36.18-75.72-80-129a567.49,567.49,0,0,0-69.85-71l-332.57-3.58q1.8,295.84,3.58,591.69a148.77,148.77,0,0,0,34.63,56.13c33.24,33.64,73,41,87.18,43l-377.35-1.2c10.91-.55,65-4.44,102.7-49a137,137,0,0,0,29.25-60.9c1.1-112.92,2.57-271.59,3.58-384.51q2.91-325.72,5.38-651.4-4.49-69.55-9-139.12a121,121,0,0,0-19.7-57.91,107.28,107.28,0,0,0-35.83-34.63,106,106,0,0,0-50.75-14.33q-52.1-5.88-51.94-9.55.52-12.21,578,0l-22.69,12.54-193.45,6.56a122.26,122.26,0,0,0-51.94,34.63c-32.12,36.67-30.48,80.77-29.86,90.76q-3.29,268.08-6.56,536.16l156.43,4.78,209-3.58a290.36,290.36,0,0,0,83.59-25.68c116.29-56.38,206.37-199.63,188.07-349.88-1.58-13.06-23-168.18-155.23-243.6a292.66,292.66,0,0,0-104.49-35.23l5.37-20.9c18.49-.72,205-5,313.46,140.91,20.29,27.29,74.41,109,66.28,221.51-7.48,103.37-63.05,170.76-81.8,192.86-63.89,75.27-142.23,101.87-183.3,115.23a449.55,449.55,0,0,1-107.47,20.9,367.18,367.18,0,0,1,105.68,57.32c35.85,28,63.91,61,101.5,121.8,52.14,84.28,68.35,134.25,97.32,193.45,27.28,55.73,72.64,133.51,149.87,219.12A455.93,455.93,0,0,0,2557.56,3101.64Z" transform="translate(601 13.21)"/><path class="cls-7" d="M1403.43,1760.63a106,106,0,0,1,50.75,14.33,107.28,107.28,0,0,1,35.83,34.63,121,121,0,0,1,19.7,57.91q4.49,69.57,9,139.12-2.48,325.68-5.38,651.4c-1,112.92-2.48,271.59-3.58,384.51a137,137,0,0,1-29.25,60.9c-37.66,44.52-91.79,48.41-102.7,49l377.35,1.2c-14.14-2-53.94-9.35-87.18-43a148.77,148.77,0,0,1-34.63-56.13q-1.79-295.84-3.58-591.69l332.57,3.58a567.49,567.49,0,0,1,69.85,71c43.83,53.25,66.94,101.31,80,129,79.52,168.32,78,196.36,130.76,292.56,64.77,118.19,110.78,155.74,158.22,173.75,9,3.42,24.36,8.52,72.84,14.33,56.61,6.77,137.67,12,238.83,3.58a455.15,455.15,0,0,1-243.6-109.86c-77.23-85.61-122.59-163.39-149.87-219.12-29-59.2-45.18-109.17-97.32-193.45-37.59-60.77-65.65-93.77-101.5-121.8a367.18,367.18,0,0,0-105.68-57.32,449.55,449.55,0,0,0,107.47-20.9c41.07-13.36,119.41-40,183.3-115.23,18.75-22.1,74.32-89.49,81.8-192.86,8.13-112.48-46-194.22-66.28-221.51-108.48-145.94-295-141.63-313.46-140.91l-5.37,20.9a292.66,292.66,0,0,1,104.49,35.23c132.25,75.42,153.65,230.54,155.23,243.6,18.3,150.25-71.78,293.5-188.07,349.88a290.36,290.36,0,0,1-83.59,25.68l-209,3.58L1625,2431.73q3.29-268.08,6.56-536.16c-.62-10-2.26-54.09,29.86-90.76a122.26,122.26,0,0,1,51.94-34.63l193.45-6.56,22.69-12.54q-577.42-12.21-578,0Q1351.34,1754.74,1403.43,1760.63Z" transform="translate(601 13.21)"/></g></svg>