<svg id="Capa_1" data-name="Capa 1" xmlns="http://www.w3.org/2000/svg" xmlns:xlink="http://www.w3.org/1999/xlink" viewBox="0 0 2607.71 1280"><defs><style>.cls-1{fill:#ed2c0c;}.cls-1,.cls-9{stroke:#9e0000;}.cls-1,.cls-3,.cls-9{stroke-miterlimit:10;}.cls-2{fill:#bc5b40;}.cls-3{fill:#fff;stroke:#070504;}.cls-4{font-size:120.32px;}.cls-4,.cls-5{font-family:Algerian, Algerian;}.cls-5{font-size:35.09px;}.cls-6,.cls-7{fill:#531001;}.cls-6{opacity:0.29;}.cls-8{fill:#ff9e03;}.cls-9{fill:#930516;}</style></defs><title>logo</title><ellipse class="cls-1" cx="2003.23" cy="733.05" rx="162.94" ry="71.86"/><image width="1280" height="1280" xlink:href="../Downloads/Telegram Desktop/photo_2024-01-29_02-11-00.jpg"/><text x="1343" y="312"></text><path class="cls-2" d="M598.55,463.48l-15.14-22.41L852.09,210.6c15.6-15.33,38.45-19.9,57.44-11.61,25.05,10.94,29.39,38.14,29.63,39.83A53.23,53.23,0,0,1,918,288.7Z" transform="translate(1343 312)"/><ellipse class="cls-2" cx="592.55" cy="452.58" rx="10.14" ry="25.92" transform="translate(1191.19 721.25) rotate(-34.04)"/><path class="cls-2" d="M721.37,463.48l15.14-22.41L467.83,210.6c-15.6-15.33-38.45-19.9-57.44-11.61-25.05,10.94-29.39,38.14-29.63,39.83-2.59,18.23,5.31,33.74,13.3,42.75a50.53,50.53,0,0,0,7.82,7.13Z" transform="translate(1343 312)"/><ellipse class="cls-2" cx="727.37" cy="452.58" rx="25.92" ry="10.14" transform="translate(1288.18 1113.96) rotate(-55.96)"/><ellipse class="cls-3" cx="2006.57" cy="601.86" rx="132.86" ry="111.13"/><text class="cls-4" transform="translate(1934.54 628.19)">rS</text><text x="1343" y="312"></text><text class="cls-5" transform="translate(1947.24 689.61)">sistem</text><path class="cls-6" d="M796.45,270.29c-.79-2.78-2.33-5.94-5.15-6.31a7.77,7.77,0,0,1,2,3.92c4.2,20.6,1.94,41.1-5.48,60.37a8.8,8.8,0,0,1,1.82,5.22,8.6,8.6,0,0,1-2.45,5.91L785.56,341a8.75,8.75,0,0,1-5.91,2.44,6.41,6.41,0,0,1-1.24-.07c-5.66,5.37-8.39,13.16-13.55,19.06-6,6.87-13.85,11.37-21.39,16.31a7.29,7.29,0,0,1-6.26,1.1c-.53.37-1,.75-1.57,1.11-16.74,11.14-38.94,11.47-58.4,16.06-6.15,1.44-13,3.56-15.8,9.25,17.1,2.32,34.6-1.45,50.51-8.14s30.45-16.22,44.74-25.89c9.38-6.34,20.18-14,27-23.2,7.24-9.71,6.68-23.46,10.16-34.73C798.43,299.48,800.83,285.6,796.45,270.29Z" transform="translate(1343 312)"/><path class="cls-6" d="M548.59,366.68c8.87,5.2,17.63,10.62,27.31,14.21a8.32,8.32,0,0,1,5.51,6.52c20.46,4.58,43,4.61,61.55,14.47-10.42-7.23-21.06-14.58-33.22-18.17-9.8-2.9-20.26-3.25-29.9-6.63A50,50,0,0,1,557.32,361c-9.08-11.48-12.61-26.26-15.9-40.52-3-13.05-4.74-28.14-9.62-40.38-3.75,16.52-5.8,34-3.23,50.81,1.91,12.52,6.74,24.87,14.57,34.69A7.84,7.84,0,0,1,548.59,366.68Z" transform="translate(1343 312)"/><ellipse class="cls-7" cx="732.41" cy="454.76" rx="19.74" ry="6.34" transform="translate(1315.37 1173.66) rotate(-60)"/><path class="cls-6" d="M712.5,456.24c-1.89-9.05,4.35-19,13.32-21.29-.57,5.4-6.29,8.4-10,12.37a19.44,19.44,0,0,0-5.12,14.49" transform="translate(1343 312)"/><path class="cls-2" d="M404.54,266.46" transform="translate(1343 312)"/><path class="cls-8" d="M399.52,286.52l6.69,3.34c0-8.08,1.21-33.66,20.05-56.82A89.91,89.91,0,0,1,463,206.3l-6.69-5A84.7,84.7,0,0,0,417.91,228C398.37,252.27,399.12,279.54,399.52,286.52Z" transform="translate(1343 312)"/><path class="cls-8" d="M905.76,296.55l-6.69,3.34c0-8.09-1.21-33.66-20.05-56.82a89.91,89.91,0,0,0-36.77-26.74l6.69-5a84.74,84.74,0,0,1,38.43,26.73C906.91,262.3,906.16,289.57,905.76,296.55Z" transform="translate(1343 312)"/><ellipse class="cls-7" cx="591.77" cy="453.75" rx="6.44" ry="18.03" transform="translate(1189.09 772.16) rotate(-37.97)"/><path class="cls-6" d="M593.47,438.47a6.64,6.64,0,0,1,5.91-1.31c3.26.88,5.29,4,7,7l5.32,9.1c-3.57,1.23-7.18-1.48-10-4s-6.05-5.71-6.27-9.64" transform="translate(1343 312)"/><path class="cls-9" d="M603.69,341.18l11-9.74-10.25,5.91-7.66-7.19Z" transform="translate(1343 312)"/><path class="cls-9" d="M593.72,251.51,596,236.45,591.78,248l-10.86-.63Z" transform="translate(1343 312)"/><path class="cls-9" d="M601.76,262.89l-1.7,3.25-10.32-2,11.73,5.62,1.2-4.16A7.66,7.66,0,0,1,601.76,262.89Z" transform="translate(1343 312)"/><path class="cls-9" d="M602.67,284.37c-.12-.27-.23-.53-.32-.8l-8.51-1.63,8.47,4.06A8.94,8.94,0,0,1,602.67,284.37Z" transform="translate(1343 312)"/><path class="cls-9" d="M605.06,326.13l11-9.74-10.26,5.92-7.66-7.2Z" transform="translate(1343 312)"/><path class="cls-9" d="M596.85,357.59l11-9.74-10.26,5.92-7.66-7.2Z" transform="translate(1343 312)"/><path class="cls-9" d="M588,370.48l13.78-5.15-11.7,1.85-4.58-9.46Z" transform="translate(1343 312)"/><path class="cls-9" d="M602.89,301.24c0-.11.09-.21.13-.31l-7.22-4,6.77,6.56A6,6,0,0,1,602.89,301.24Z" transform="translate(1343 312)"/><path class="cls-9" d="M583.62,236.75l2.43-16L581.56,233,570,232.31Z" transform="translate(1343 312)"/><path class="cls-9" d="M722.54,337.85l-12.3-8.71,11.1,4.9,7-8.18Z" transform="translate(1343 312)"/><path class="cls-9" d="M729.65,240.71a8.14,8.14,0,0,1,.57,1.36l5.15-2.32Z" transform="translate(1343 312)"/><path class="cls-9" d="M721.94,236.66q-1.58-3.16-3.13-6.34l1.72,6.55A7.85,7.85,0,0,1,721.94,236.66Z" transform="translate(1343 312)"/><path class="cls-9" d="M718,261l-4.45-6.64a1.64,1.64,0,0,1-.22.14c-.16.09-.33.18-.51.26q2.07,5.05,4.15,10.1l11.33-7Z" transform="translate(1343 312)"/><path class="cls-9" d="M718.29,318.87l-9.84-4.34c0,.09-.05.18-.09.27l11.13,7.88q2.89-6,5.81-12Q721.79,314.77,718.29,318.87Z" transform="translate(1343 312)"/><path class="cls-9" d="M731.32,353.81l-12.3-8.7,11.1,4.89,7-8.17Z" transform="translate(1343 312)"/><path class="cls-9" d="M741.72,366l-14.6-3.73,12.12.6,3.62-10.14Z" transform="translate(1343 312)"/><path class="cls-9" d="M716.11,298.66,714.17,300q-5.38-6.19-10.76-12.38L714,306c1.26-1.53,2.53-3,3.8-4.58A7.2,7.2,0,0,1,716.11,298.66Z" transform="translate(1343 312)"/><path class="cls-9" d="M731.45,229.27q-2.13-8-4.24-16.07l5.93,12,11.71-2Z" transform="translate(1343 312)"/></svg>