<svg xmlns="http://www.w3.org/2000/svg" viewBox="0 0 5702 6126.56"><defs><style>.cls-1{fill:#0a0909;}.cls-2{font-size:102.07px;fill:#088208;font-family:MyriadPro-Regular, Myriad Pro;}.cls-3{fill:#f24611;}.cls-4{fill:#f4810f;}.cls-5{fill:#020202;}.cls-6{fill:#050101;}.cls-7{fill:none;stroke:#d32020;stroke-miterlimit:10;}</style></defs><title>sisondo</title><g id="Capa_1" data-name="Capa 1"><path class="cls-1" d="M5700,6105.71H0v-3992q.09-338,0-676c0-69.17-.15-76.84,0-80C32.84,676.56,898.56,199.64,1320-.29H2900Z" transform="translate(2 3.29)"/><text class="cls-2" transform="translate(153 4456.04)">1 0 1 0 1 0 1 0 1 0 1 0 1 0 1 0 1 0 1 0 1 0 1 0 </text><text class="cls-2" transform="translate(144 4561.04)">1 0 1 0 1 0 1 0 1 0 1 0 1 0 1 0 1 0 1 0 1 0 1 0 </text><text class="cls-2" transform="translate(149 4768.04)">1 0 1 0 1 0 1 0 1 0 1 0 1 0 1 0 1 0 1 0 1 0 1 0 </text><text class="cls-2" transform="translate(3 4870.04)">1 0 1 0 1 0 1 0 1 0 1 0 1 0 1 0 1 0 1 0 1 0 1 0 </text><text class="cls-2" transform="translate(3 4963.04)">1 0 1 0 1 0 1 0 1 0 1 0 1 0 1 0 1 0 1 0 1 0 1 0 </text><text class="cls-2" transform="translate(3 5071.04)">1 0 1 0 1 0 1 0 1 0 1 0 1 0 1 0 1 0 1 0 1 0 1 0 </text><text class="cls-2" transform="translate(3 5170.04)">1 0 1 0 1 0 1 0 1 0 1 0 1 0 1 0 1 0 1 0 1 0 1 0 </text><text class="cls-2" transform="translate(0 5271.04)">1 0 1 0 1 0 1 0 1 0 1 0 1 0 1 0 1 0 1 0 1 0 1 0 </text><text class="cls-2" transform="translate(3 5367.04)">1 0 1 0 1 0 1 0 1 0 1 0 1 0 1 0 1 0 1 0 1 0 1 0 </text><text class="cls-2" transform="translate(3 5450.04)">1 0 1 0 1 0 1 0 1 0 1 0 1 0 1 0 1 0 1 0 1 0 1 0 </text><text class="cls-2" transform="translate(3 5540.04)">1 0 1 0 1 0 1 0 1 0 1 0 1 0 1 0 1 0 1 0 1 0 1 0 1 </text><text class="cls-2" transform="translate(3 5622.04)">1 0 1 0 1 0 1 0 1 0 1 0 1 0 1 0 1 0 1 0 1 0 1 0 1 </text><text class="cls-2" transform="translate(3 5712.04)">1 0 1 0 1 0 1 0 1 0 1 0 1 0 1 0 1 0 1 0 1 0 1 0 1</text><text class="cls-2" transform="translate(3 5798.04)">1 0 1 0 1 0 1 0 1 0 1 0 1 0 1 0 1 0 1 0 1 0 1 0 1 0</text><text class="cls-2" transform="translate(0 5884.04)">1 0 1 0 1 0 1 0 1 0 1 0 1 0 1 0 1 0 1 0 1 0 1 0 1 0 1</text><text class="cls-2" transform="translate(3 5981.04)">1 0 1 0 1 0 1 0 1 0 1 0 1 0 1 0 1 0 1 0 1 0 1 0 1 0 1 </text><text class="cls-2" transform="translate(0 6101.04)">1 0 1 0 1 0 1 0 1 0 1 0 1 0 1 0 1 0 1 0 1 0 1 0 1 0 1 </text><text class="cls-2" transform="translate(150 4663.04)">1 0 1 0 1 0 1 0 1 0 1 0 1 0 1 0 1 0 1 0 1 0 1 0 </text><text class="cls-2" transform="translate(2 2078.04)">1 0 1 0 1</text><text class="cls-2" transform="translate(1 1861.04)">1 0 1 </text><text class="cls-2" transform="translate(1 1757.04)">1 0 1 </text><text class="cls-2" transform="translate(2 1659.04)">1 0 </text><text class="cls-2" transform="translate(2 1563.04)">1 0</text><text class="cls-2" transform="translate(2 1450.04)">1 </text><text class="cls-2" transform="translate(1 1969.04)">1 0 1 0 </text><text class="cls-2" transform="translate(2 2195.04)">1 0 1 0 1 </text><text class="cls-2" transform="translate(2 2295.04)">1 0 1 0 1 0 </text><text class="cls-2" transform="translate(2 2405.04)">1 0 1 0 1 0 </text><text class="cls-2" transform="translate(2 2505.04)">1 0 1 0 1 0 1 </text><text class="cls-2" transform="translate(2 2608.04)">1 0 1 0 1 0 1 0 </text><text class="cls-2" transform="translate(2 2708.04)">1 0 1 0 1 0 1 0</text><text class="cls-2" transform="translate(2 2804.04)">1 0 1 0 1 0 1 0 1 </text><text class="cls-2" transform="translate(2 2900.04)">1 0 1 0 1 0 1 0 1</text><text class="cls-2" transform="translate(2 3003.04)">1 0 1 0 1 0 1 0 1 0</text><text class="cls-2" transform="translate(1 3113.04)">1 0 1 0 1 0 1 0 1 0 1</text><text class="cls-2" transform="translate(3 3209.04)">1 0 1 0 1 0 1 0 1 0 1</text><text class="cls-2" transform="translate(3 3305.04)">1 0 1 0 1 0 1 0 1 0 1 0</text><text class="cls-2" transform="translate(3 3408.04)">1 0 1 0 1 0 1 0 1 0 1 0 1</text><text class="cls-2" transform="translate(2 3518.04)">1 0 1 0 1 0 1 0 1 0 1 0 1</text><text class="cls-2" transform="translate(2 3625.04)">1 0 1 0 1 0 1 0 1 0 1 0 1 0z </text><text class="cls-2" transform="translate(2 3721.04)">1 0 1 0 1 0 1 0 1</text><text class="cls-2" transform="translate(2 3824.04)">1 0 1 0 1 0 1 0 1</text><text class="cls-2" transform="translate(1 3934.04)">1 0 1 0 1 0 1 0 1</text><text class="cls-2" transform="translate(1 4027.04)">1 0 1 0 1 0 1 0 1</text><text class="cls-2" transform="translate(1 4130.04)">1 0 1 0 1 0 1 0 1</text><text class="cls-2" transform="translate(0 4240.04)">1 0 1 0 1 0 1 0 1</text><text class="cls-2" transform="translate(3 4348.04)">1 0 1 0 1 0 1 0 1 0 1 0 1 0 1 0 1 0 1 0 1 0 1 0 </text><text class="cls-2" transform="translate(0 4456.04)">1 0 1 0 1 0 1 0 1</text><text class="cls-2" transform="translate(0 4561.04)">1 0 1 0 1 0 1 0 1</text><text class="cls-2" transform="translate(3 4663.04)">1 0 1 0 1 0 1 0 1</text><text class="cls-2" transform="translate(3 4768.04)">1 0 1 0 1 0 1 0 1</text><text class="cls-2" transform="translate(445 3721.04)">1 0 1 0 1 0 1 0 1</text><text class="cls-2" transform="translate(445 3824.04)">1 0 1 0 1 0 1 0 1</text><text class="cls-2" transform="translate(444 3934.04)">1 0 1 0 1 0 1 0 1</text><text class="cls-2" transform="translate(594 4027.04)">1 0 1 0 1 0 1 0 1</text><text class="cls-2" transform="translate(594 4130.04)">1 0 1 0 1 0 1 0 1</text><text class="cls-2" transform="translate(593 4240.04)">1 0 1 0 1 0 1 0 1</text><path class="cls-3" d="M5629,6102.71H2039L-1,1304.71V-3.29H2849Q4239,3049.71,5629,6102.71Z" transform="translate(2 3.29)"/><path class="cls-4" d="M5079,6108.71H2719Q1359,3055.72-1,2.71H2189Z" transform="translate(2 3.29)"/><path class="cls-5" d="M3243.5,3060.21a1263.1,1263.1,0,0,0-190-104,333.78,333.78,0,0,0,184-129c39.26,20.5,96.81,50.94,166,89,80.82,44.46,121.23,66.68,142,80,48.35,31,180.91,116,250,280,12.49,29.66,56.08,140.7,38,287-3.71,30.05-22.75,164.24-125,293-138.61,174.55-331.86,215.35-387,225l-72-47a415.85,415.85,0,0,0,118-35s65.7-30.61,122-86c94.08-92.56,160.63-236,149-377C3619.89,3310.52,3408.24,3169.76,3243.5,3060.21Z" transform="translate(2 3.29)"/><path class="cls-5" d="M2269.5,3333.21l29,10a479,479,0,0,0,3,94c5.29,40.32,17.6,93.87,54,167,28.71,57.69,105.78,210.19,274,326,79.17,54.5,144.22,77.33,161,83a606.72,606.72,0,0,0,146,30l42,70c-37.08-12.1-95.09-29.68-168-46-57.15-12.79-60.63-10.74-146-28-117.76-23.8-133.45-33.08-186-34-69.17-1.21-107.4-1.88-140,25-54.54,45-47.46,129.25-46,144l-21,1Q2270.5,3754.21,2269.5,3333.21Z" transform="translate(2 3.29)"/><path class="cls-5" d="M3135,1687.71c44.71,6.71,148.5,25.69,277,65,110.22,33.72,174,62.62,230,30,30.78-17.93,47.54-47.64,57-71v-97l30-41-3,862h-29c-1-91.93-16.66-237.08-98-387-35.92-66.21-89-164-203-236-98.72-62.31-194.66-74.64-252-82-121.68-15.63-216.05,3.85-247,11-86.34,19.94-200.57,46.33-285,144-138.53,160.25-83.32,381.38-76,409,30.08,113.49,97.57,184.66,138.5,227.5,98.39,103,207.83,148.32,267,168-10.87,18.66-38.28,59.86-91,88a231.49,231.49,0,0,1-102,27l-132-69a528.26,528.26,0,0,1-112.5-77.5c-109.36-98.57-147.63-217.22-160-263-57.17-211.58,39.09-389.24,53-414,132.56-235.87,393.83-282.54,458-294C2980.31,1665.33,3096.86,1682,3135,1687.71Z" transform="translate(2 3.29)"/><path class="cls-1" d="M100,3697.71" transform="translate(2 3.29)"/><text x="2" y="3.29"></text></g><g id="Capa_2" data-name="Capa 2"><path class="cls-6" d="M3466,4237.71a768.26,768.26,0,0,0,260,82c-169.43,14.14-305.2,5.35-400-6-81.2-9.72-106.92-18.27-122-24-79.45-30.16-156.52-93.05-265-291-88.29-161.12-85.81-208.09-219-490-21.89-46.33-60.59-126.82-134-216a949.85,949.85,0,0,0-117-119l-557-6,6,991a248.94,248.94,0,0,0,58,94c55.67,56.35,122.33,68.74,146,72l-632-2c18.28-.93,108.93-7.44,172-82,32.37-38.26,44.22-78.79,49-102,1.84-189.13,4.31-454.87,6-644q4.86-545.53,9-1091l-15-233c-1.53-20.25-7.34-58.5-33-97-7.91-11.87-25.73-38-60-58a177.72,177.72,0,0,0-85-24q-87.26-9.86-87-16,.87-20.43,968,0l-38,21-324,11c-19.45,6.73-55.84,22.43-87,58-53.79,61.41-51,135.27-50,152q-5.51,449-11,898l262,8,350-6a486.31,486.31,0,0,0,140-43c194.77-94.43,345.64-334.35,315-586-2.66-21.88-38.5-281.68-260-408-67.6-38.55-132-53-175-59l9-35c31-1.22,343.31-8.44,525,236,34,45.71,124.62,182.61,111,371-12.52,173.12-105.59,286-137,323-107,126.07-238.22,170.62-307,193a753.23,753.23,0,0,1-180,35,615.13,615.13,0,0,1,177,96c60.05,46.95,107,102.23,170,204,87.33,141.17,114.48,224.85,163,324,45.68,93.35,121.65,223.62,251,367A762.86,762.86,0,0,0,3466,4237.71Z" transform="translate(2 3.29)"/><path class="cls-7" d="M1533,1991.71a177.72,177.72,0,0,1,85,24c34.27,20,52.09,46.13,60,58,25.66,38.5,31.47,76.75,33,97l15,233q-4.14,545.46-9,1091c-1.69,189.13-4.16,454.87-6,644-4.78,23.21-16.63,63.74-49,102-63.07,74.56-153.72,81.07-172,82l632,2c-23.67-3.26-90.33-15.65-146-72a248.94,248.94,0,0,1-58-94l-6-991,557,6a949.85,949.85,0,0,1,117,119c73.41,89.18,112.11,169.67,134,216,133.19,281.91,130.71,328.88,219,490,108.48,197.95,185.55,260.84,265,291,15.08,5.73,40.8,14.28,122,24,94.8,11.35,230.57,20.14,400,6a762.38,762.38,0,0,1-408-184c-129.35-143.38-205.32-273.65-251-367-48.52-99.15-75.67-182.83-163-324-63-101.77-109.95-157.05-170-204a615.13,615.13,0,0,0-177-96,753.23,753.23,0,0,0,180-35c68.78-22.38,200-66.93,307-193,31.41-37,124.48-149.88,137-323,13.62-188.39-77-325.29-111-371-181.69-244.44-494-237.22-525-236l-9,35c43,6,107.4,20.45,175,59,221.5,126.32,257.34,386.12,260,408,30.64,251.65-120.23,491.57-315,586a486.31,486.31,0,0,1-140,43l-350,6-262-8q5.51-449,11-898c-1-16.73-3.79-90.59,50-152,31.16-35.57,67.55-51.27,87-58l324-11,38-21q-967.11-20.43-968,0Q1445.75,1981.86,1533,1991.71Z" transform="translate(2 3.29)"/></g></svg>