<svg xmlns="http://www.w3.org/2000/svg" viewBox="0 0 5351 5117"><defs><style>.cls-1{fill:#0a0909;}.cls-2{font-size:102.07px;fill:#088208;}.cls-2,.cls-6{font-family:MyriadPro-Regular, Myriad Pro;}.cls-3{fill:#f24611;}.cls-4{fill:#f4810f;}.cls-5{fill:#020202;}.cls-6{font-size:72px;}.cls-7{letter-spacing:-0.01em;}.cls-8{letter-spacing:0em;}.cls-9{letter-spacing:-0.01em;}.cls-10{fill:#050101;}.cls-11{fill:none;stroke:#d32020;stroke-miterlimit:10;}</style></defs><title>sistem</title><g id="Capa_1" data-name="Capa 1"><path class="cls-1" d="M4750,5053.71H-69.94V1741q.07-280.49,0-561c0-57.4-.13-63.77,0-66.39,27.77-565.23,759.83-961,1116.2-1126.9L2430-.29Q3590,2526.72,4750,5053.71Z" transform="translate(601 57.29)"/><text class="cls-2" transform="translate(809 3395.04)">1 0 1 0 1 0 1 0 1 0 1 0 1 0 1 0 1 0 1 0 1 0 1 0 </text><text class="cls-2" transform="translate(800 3500.04)">1 0 1 0 1 0 1 0 1 0 1 0 1 0 1 0 1 0 1 0 1 0 1 0 </text><text class="cls-2" transform="translate(805 3707.04)">1 0 1 0 1 0 1 0 1 0 1 0 1 0 1 0 1 0 1 0 1 0 1 0 </text><text class="cls-2" transform="translate(659 3809.04)">1 0 1 0 1 0 1 0 1 0 1 0 1 0 1 0 1 0 1 0 1 0 1 0 </text><text class="cls-2" transform="translate(659 3902.04)">1 0 1 0 1 0 1 0 1 0 1 0 1 0 1 0 1 0 1 0 1 0 1 0 </text><text class="cls-2" transform="translate(659 4010.04)">1 0 1 0 1 0 1 0 1 0 1 0 1 0 1 0 1 0 1 0 1 0 1 0 </text><text class="cls-2" transform="translate(659 4109.04)">1 0 1 0 1 0 1 0 1 0 1 0 1 0 1 0 1 0 1 0 1 0 1 0 </text><text class="cls-2" transform="translate(656 4210.04)">1 0 1 0 1 0 1 0 1 0 1 0 1 0 1 0 1 0 1 0 1 0 1 0 </text><text class="cls-2" transform="translate(659 4306.04)">1 0 1 0 1 0 1 0 1 0 1 0 1 0 1 0 1 0 1 0 1 0 1 0 </text><text class="cls-2" transform="translate(659 4389.04)">1 0 1 0 1 0 1 0 1 0 1 0 1 0 1 0 1 0 1 0 1 0 1 0 </text><text class="cls-2" transform="translate(659 4479.04)">1 0 1 0 1 0 1 0 1 0 1 0 1 0 1 0 1 0 1 0 1 0 1 0 1 </text><text class="cls-2" transform="translate(659 4561.04)">1 0 1 0 1 0 1 0 1 0 1 0 1 0 1 0 1 0 1 0 1 0 1 0 1 </text><text class="cls-2" transform="translate(659 4651.04)">1 0 1 0 1 0 1 0 1 0 1 0 1 0 1 0 1 0 1 0 1 0 1 0 1</text><text class="cls-2" transform="translate(659 4737.04)">1 0 1 0 1 0 1 0 1 0 1 0 1 0 1 0 1 0 1 0 1 0 1 0 1 0</text><text class="cls-2" transform="translate(656 4823.04)">1 0 1 0 1 0 1 0 1 0 1 0 1 0 1 0 1 0 1 0 1 0 1 0 1 0 1</text><text class="cls-2" transform="translate(659 4920.04)">1 0 1 0 1 0 1 0 1 0 1 0 1 0 1 0 1 0 1 0 1 0 1 0 1 0 1 </text><text class="cls-2" transform="translate(656 5040.04)">1 0 1 0 1 0 1 0 1 0 1 0 1 0 1 0 1 0 1 0 1 0 1 0 1 0 1 </text><text class="cls-2" transform="translate(806 3602.04)">1 0 1 0 1 0 1 0 1 0 1 0 1 0 1 0 1 0 1 0 1 0 1 0 </text><text class="cls-2" transform="translate(658 1017.04)">1 0 1 0 1</text><text class="cls-2" transform="translate(657 800.04)">1 0 1 </text><text class="cls-2" transform="translate(657 696.04)">1 0 1 </text><text class="cls-2" transform="translate(658 598.04)">1 0 </text><text class="cls-2" transform="translate(658 502.04)">1 0</text><text class="cls-2" transform="translate(0 814.04)">1 </text><text class="cls-2" transform="translate(657 908.04)">1 0 1 0 </text><text class="cls-2" transform="translate(658 1134.04)">1 0 1 0 1 </text><text class="cls-2" transform="translate(658 1234.04)">1 0 1 0 1 0 </text><text class="cls-2" transform="translate(658 1344.04)">1 0 1 0 1 0 </text><text class="cls-2" transform="translate(658 1444.04)">1 0 1 0 1 0 1 </text><text class="cls-2" transform="translate(658 1547.04)">1 0 1 0 1 0 1 0 </text><text class="cls-2" transform="translate(658 1647.04)">1 0 1 0 1 0 1 0</text><text class="cls-2" transform="translate(658 1743.04)">1 0 1 0 1 0 1 0 1 </text><text class="cls-2" transform="translate(658 1839.04)">1 0 1 0 1 0 1 0 1</text><text class="cls-2" transform="translate(658 1942.04)">1 0 1 0 1 0 1 0 1 0</text><text class="cls-2" transform="translate(657 2052.04)">1 0 1 0 1 0 1 0 1 0 1</text><text class="cls-2" transform="translate(659 2148.04)">1 0 1 0 1 0 1 0 1 0 1</text><text class="cls-2" transform="translate(659 2244.04)">1 0 1 0 1 0 1 0 1 0 1 0</text><text class="cls-2" transform="translate(659 2347.04)">1 0 1 0 1 0 1 0 1 0 1 0 1</text><text class="cls-2" transform="translate(658 2457.04)">1 0 1 0 1 0 1 0 1 0 1 0 1</text><text class="cls-2" transform="translate(658 2564.04)">1 0 1 0 1 0 1 0 1 0 1 0 1 0z </text><text class="cls-2" transform="translate(658 2660.04)">1 0 1 0 1 0 1 0 1</text><text class="cls-2" transform="translate(658 2763.04)">1 0 1 0 1 0 1 0 1</text><text class="cls-2" transform="translate(657 2873.04)">1 0 1 0 1 0 1 0 1</text><text class="cls-2" transform="translate(657 2966.04)">1 0 1 0 1 0 1 0 1 0</text><text class="cls-2" transform="translate(657 3069.04)">1 0 1 0 1 0 1 0 1 0 1</text><text class="cls-2" transform="translate(656 3179.04)">1 0 1 0 1 0 1 0 1 0 1 0V</text><text class="cls-2" transform="translate(659 3287.04)">1 0 1 0 1 0 1 0 1 0 1 0 1 0 1 0 1 0 1 0 1 0 1 0 </text><text class="cls-2" transform="translate(656 3395.04)">1 0 1 0 1 0 1 0 1</text><text class="cls-2" transform="translate(656 3500.04)">1 0 1 0 1 0 1 0 1</text><text class="cls-2" transform="translate(659 3602.04)">1 0 1 0 1 0 1 0 1</text><text class="cls-2" transform="translate(659 3707.04)">1 0 1 0 1 0 1 0 1</text><text class="cls-2" transform="translate(1101 2660.04)">1 0 1 0 1 0 1 0 1</text><text class="cls-2" transform="translate(1101 2763.04)">1 0 1 0 1 0 1 0 1</text><text class="cls-2" transform="translate(1100 2873.04)">1 0 1 0 1 0 1 0 1</text><path class="cls-3" d="M4670.31,5018.72H1685.88L-10,1030.07V-57.29H2359.25Q3514.77,2480.71,4670.31,5018.72Z" transform="translate(601 57.29)"/><path class="cls-4" d="M4271.08,5059.71H2309.18Q1178.59,2521.71,48-16.3H1868.58Z" transform="translate(601 57.29)"/><path class="cls-5" d="M2388,2166.14a967.72,967.72,0,0,0-145.56-79.68,255.65,255.65,0,0,0,141-98.82c30.08,15.7,74.17,39,127.18,68.18,61.91,34.06,92.87,51.09,108.78,61.29,37,23.74,138.6,88.85,191.53,214.51,9.57,22.72,43,107.79,29.11,219.87-2.85,23-17.43,125.82-95.76,224.46-106.19,133.73-254.24,165-296.48,172.38l-55.16-36a318.82,318.82,0,0,0,90.4-26.81s50.33-23.45,93.46-65.89c72.08-70.91,123.06-180.81,114.15-288.82C2676.39,2357.9,2514.25,2250.07,2388,2166.14Z" transform="translate(601 57.29)"/><path class="cls-5" d="M1641.86,2375.28l22.22,7.67a366.39,366.39,0,0,0,2.3,72c4,30.89,13.48,71.91,41.37,127.94,22,44.19,81,161,209.91,249.75,60.65,41.75,110.49,59.24,123.34,63.58a465.06,465.06,0,0,0,111.85,23l32.18,53.62c-28.41-9.27-72.85-22.74-128.71-35.24-43.78-9.8-46.45-8.23-111.85-21.45-90.21-18.24-102.24-25.34-142.49-26.05-53-.92-82.28-1.44-107.26,19.16-41.78,34.45-36.35,99-35.24,110.31l-16.09.77Z" transform="translate(601 57.29)"/><path class="cls-5" d="M2304.92,1114.67c34.25,5.14,113.77,19.68,212.21,49.79,84.44,25.83,133.29,48,176.2,23,23.59-13.74,36.42-36.5,43.67-54.4v-74.31l23-31.41q-1.14,330.2-2.3,660.38h-22.21c-.75-70.43-12.76-181.63-75.08-296.48-27.52-50.72-68.19-125.67-155.52-180.8-75.63-47.74-149.13-57.18-193.06-62.82-93.21-12-165.51,3-189.22,8.43-66.15,15.27-153.66,35.49-218.34,110.31-106.13,122.77-63.83,292.18-58.22,313.34,23,87,74.74,141.46,106.1,174.29,75.38,78.9,159.22,113.63,204.55,128.7a176.31,176.31,0,0,1-147.86,88.1l-101.12-52.86a404.81,404.81,0,0,1-86.19-59.37c-83.78-75.51-113.1-166.41-122.58-201.48-43.79-162.1,30-298.2,40.61-317.17,101.56-180.7,301.71-216.45,350.87-225.23C2186.41,1097.52,2275.7,1110.28,2304.92,1114.67Z" transform="translate(601 57.29)"/><path class="cls-1" d="M157,2582.71" transform="translate(601 57.29)"/><text x="601" y="57.29"></text><text class="cls-6" transform="translate(556.02 2154.88)"><tspan class="cls-7">L</tspan><tspan class="cls-8" x="32.98" y="0">o</tspan><tspan class="cls-9" x="72.5" y="0">r</tspan><tspan x="95.33" y="0">em ipsum</tspan></text></g><g id="Capa_2" data-name="Capa 2"><path class="cls-10" d="M2492.33,3089.47A563.14,563.14,0,0,0,2683,3149.6c-124.25,10.37-223.82,3.93-293.34-4.4-59.54-7.12-78.41-13.39-89.47-17.6-58.26-22.11-114.78-68.23-194.33-213.4-64.75-118.16-62.93-152.6-160.6-359.34-16.06-34-44.44-93-98.27-158.4a696.44,696.44,0,0,0-85.8-87.27l-408.47-4.4q2.19,363.38,4.4,726.75a182.42,182.42,0,0,0,42.53,68.93c40.82,41.32,89.71,50.41,107.07,52.8l-463.48-1.47c13.41-.68,79.89-5.45,126.14-60.13,23.74-28.06,32.43-57.78,35.93-74.8,1.35-138.7,3.16-333.58,4.4-472.27q3.57-400.07,6.6-800.08-5.49-85.44-11-170.87a148.65,148.65,0,0,0-24.2-71.14c-5.8-8.7-18.87-27.84-44-42.53a130.31,130.31,0,0,0-62.33-17.6q-64-7.23-63.8-11.73.63-15,709.87,0l-27.86,15.4-237.61,8.06a150.11,150.11,0,0,0-63.8,42.54c-39.44,45-37.43,99.2-36.66,111.47q-4.05,329.27-8.07,658.54l192.13,5.86,256.67-4.4a356.23,356.23,0,0,0,102.67-31.53c142.84-69.25,253.48-245.19,231-429.74-1.95-16-28.24-206.57-190.67-299.2-49.58-28.27-96.78-38.85-128.34-43.27l6.6-25.67c22.71-.89,251.77-6.19,385,173.07,24.92,33.52,91.39,133.92,81.4,272.07-9.18,127-77.44,209.74-100.47,236.87-78.48,92.46-174.7,125.13-225.14,141.54a552.67,552.67,0,0,1-132,25.67,450.61,450.61,0,0,1,129.8,70.4c44,34.43,78.5,75,124.67,149.6,64,103.52,83.95,164.89,119.54,237.6,33.5,68.46,89.21,164,184.07,269.14A559.23,559.23,0,0,0,2492.33,3089.47Z" transform="translate(601 57.29)"/><path class="cls-11" d="M1074.78,1442.38a130.31,130.31,0,0,1,62.33,17.6c25.13,14.69,38.2,33.83,44,42.53a148.65,148.65,0,0,1,24.2,71.14q5.51,85.44,11,170.87-3,400-6.6,800.08c-1.24,138.69-3,333.57-4.4,472.27-3.5,17-12.19,46.74-35.93,74.8-46.25,54.68-112.73,59.45-126.14,60.13l463.48,1.47c-17.36-2.39-66.25-11.48-107.07-52.8a182.42,182.42,0,0,1-42.53-68.93q-2.2-363.37-4.4-726.75l408.47,4.4a696.44,696.44,0,0,1,85.8,87.27c53.83,65.4,82.21,124.43,98.27,158.4,97.67,206.74,95.85,241.18,160.6,359.34,79.55,145.17,136.07,191.29,194.33,213.4,11.06,4.21,29.93,10.48,89.47,17.6,69.52,8.33,169.09,14.77,293.34,4.4a559,559,0,0,1-299.2-134.93c-94.86-105.15-150.57-200.68-184.07-269.14-35.59-72.71-55.5-134.08-119.54-237.6-46.17-74.63-80.63-115.17-124.67-149.6a450.61,450.61,0,0,0-129.8-70.4,552.67,552.67,0,0,0,132-25.67c50.44-16.41,146.66-49.08,225.14-141.54,23-27.13,91.29-109.91,100.47-236.87,10-138.15-56.48-238.55-81.4-272.07-133.24-179.26-362.3-174-385-173.07l-6.6,25.67c31.56,4.42,78.76,15,128.34,43.27,162.43,92.63,188.72,283.16,190.67,299.2,22.47,184.55-88.17,360.49-231,429.74a356.23,356.23,0,0,1-102.67,31.53l-256.67,4.4-192.13-5.86q4-329.26,8.07-658.54c-.77-12.27-2.78-66.44,36.66-111.47a150.11,150.11,0,0,1,63.8-42.54l237.61-8.06,27.86-15.4q-709.21-15-709.87,0Q1010.79,1435.15,1074.78,1442.38Z" transform="translate(601 57.29)"/></g></svg>